<svg width="40" height="40" viewBox="0 0 40 40" fill="none" xmlns="http://www.w3.org/2000/svg">
<g clip-path="url(#clip0_2118_15592)">
<path fill-rule="evenodd" clip-rule="evenodd" d="M10.8333 10.8333H17.5V12.5H12.5V17.5H10.8333V10.8333ZM14.1667 19.1667V18.3333V15V14.1667H15H18.3333H19.1667V19.1667H14.1667ZM15.8333 17.5H17.5V15.8333H15.8333V17.5ZM20.8333 19.1667V14.1667H21.6667H25H25.8333V19.1667H20.8333ZM22.5 17.5H24.1667V15.8333H22.5V17.5ZM14.1667 25V25.8333H19.1667V20.8333H14.1667V21.6667V25ZM17.5 24.1667H15.8333V22.5H17.5V24.1667ZM11.6667 29.1667H10.8333V22.5H12.5V27.5H17.5V29.1667H11.6667ZM29.1667 10.8333V17.5H27.5V12.5H22.5V10.8333H29.1667ZM29.1667 28.3333V29.1667H22.5V27.5H27.5V22.5H29.1667V28.3333ZM20.8333 20.8333V25.8333H26.0417V24.1667H22.5V20.8333H20.8333ZM24.1667 20.8333V22.5H25.8333V20.8333H24.1667Z" fill="white"/>
</g>
<defs>
<clipPath id="clip0_2118_15592">
<rect width="20" height="20" fill="white" transform="translate(10 10)"/>
</clipPath>
</defs>
</svg>
